<svg xmlns="http://www.w3.org/2000/svg" width="18.298" height="18.294" viewBox="0 0 18.298 18.294">
  <g id="instagram" transform="translate(0 0)">
    <g id="Group_916" data-name="Group 916" transform="translate(0 0)">
      <path id="Path_42894" data-name="Path 42894" d="M9.076,36.282a4.69,4.69,0,1,0,4.69,4.69A4.683,4.683,0,0,0,9.076,36.282Zm0,7.74a3.049,3.049,0,1,1,3.049-3.049A3.055,3.055,0,0,1,9.076,44.021Zm5.976-7.931A1.094,1.094,0,1,1,13.958,35,1.091,1.091,0,0,1,15.052,36.09Zm3.106,1.11a5.414,5.414,0,0,0-1.478-3.833,5.45,5.45,0,0,0-3.833-1.478c-1.51-.086-6.037-.086-7.548,0a5.442,5.442,0,0,0-3.833,1.474A5.432,5.432,0,0,0-.011,37.2c-.086,1.51-.086,6.037,0,7.548a5.414,5.414,0,0,0,1.478,3.833A5.456,5.456,0,0,0,5.3,50.054c1.51.086,6.037.086,7.548,0a5.414,5.414,0,0,0,3.833-1.478,5.449,5.449,0,0,0,1.478-3.833C18.244,43.233,18.244,38.71,18.159,37.2Zm-1.951,9.164A3.087,3.087,0,0,1,14.468,48.1c-1.2.478-4.062.367-5.392.367s-4.192.106-5.392-.367a3.087,3.087,0,0,1-1.739-1.739c-.478-1.2-.367-4.062-.367-5.392s-.106-4.192.367-5.392a3.087,3.087,0,0,1,1.739-1.739c1.2-.478,4.062-.367,5.392-.367s4.192-.106,5.392.367a3.087,3.087,0,0,1,1.739,1.739c.478,1.2.367,4.062.367,5.392S16.685,45.164,16.207,46.364Z" transform="translate(0.075 -31.825)" fill="#d75743"/>
    </g>
  </g>
</svg>
