<svg xmlns="http://www.w3.org/2000/svg" width="17.643" height="17.643" viewBox="0 0 17.643 17.643">
  <g id="square-twitter" transform="translate(0 0)">
    <g id="Group_918" data-name="Group 918" transform="translate(0 0)">
      <path id="Path_42896" data-name="Path 42896" d="M15.753,32H1.89A1.891,1.891,0,0,0,0,33.89V47.753a1.891,1.891,0,0,0,1.89,1.89H15.753a1.891,1.891,0,0,0,1.89-1.89V33.89A1.891,1.891,0,0,0,15.753,32Zm-1.926,6.254c.008.11.008.224.008.335a7.3,7.3,0,0,1-7.349,7.349A7.315,7.315,0,0,1,2.52,44.779a5.441,5.441,0,0,0,.622.032,5.178,5.178,0,0,0,3.206-1.1,2.586,2.586,0,0,1-2.414-1.792A2.784,2.784,0,0,0,5.1,41.869a2.583,2.583,0,0,1-2.068-2.536V39.3a2.581,2.581,0,0,0,1.166.327,2.577,2.577,0,0,1-1.15-2.15,2.551,2.551,0,0,1,.35-1.3,7.334,7.334,0,0,0,5.324,2.7,2.588,2.588,0,0,1,4.407-2.359,5.061,5.061,0,0,0,1.638-.622,2.576,2.576,0,0,1-1.134,1.422,5.14,5.14,0,0,0,1.489-.4A5.436,5.436,0,0,1,13.827,38.254Z" transform="translate(0 -32)" fill="#d75743"/>
    </g>
  </g>
</svg>
