<svg xmlns="http://www.w3.org/2000/svg" width="27.867" height="25.032" viewBox="0 0 27.867 25.032">
  <g id="ticket" transform="translate(-32 -43.808) rotate(-30)">
    <g id="Group_923" data-name="Group 923" transform="translate(0 64)">
      <path id="Path_47802" data-name="Path 47802" d="M2.582,64A2.584,2.584,0,0,0,0,66.582v2.582a.861.861,0,0,0,.633.75,1.939,1.939,0,0,1,1.3,1.831,1.939,1.939,0,0,1-1.3,1.831.861.861,0,0,0-.633.75v2.582A2.584,2.584,0,0,0,2.582,79.49H20.653a2.584,2.584,0,0,0,2.582-2.582V74.327a.861.861,0,0,0-.633-.75,1.939,1.939,0,0,1,0-3.663.861.861,0,0,0,.633-.75V66.582A2.584,2.584,0,0,0,20.653,64Zm2.582,4.518v6.454a.647.647,0,0,0,.645.645H17.426a.647.647,0,0,0,.645-.645V68.518a.647.647,0,0,0-.645-.645H5.809A.647.647,0,0,0,5.163,68.518Zm-1.291-.645a1.289,1.289,0,0,1,1.291-1.291H18.071a1.289,1.289,0,0,1,1.291,1.291v7.745a1.289,1.289,0,0,1-1.291,1.291H5.163a1.289,1.289,0,0,1-1.291-1.291Z" transform="translate(0 -64)" fill="#4c1b4e"/>
    </g>
  </g>
</svg>
